<svg width="260" height="70" viewBox="0 0 260 70" fill="none" xmlns="http://www.w3.org/2000/svg">
<path d="M31.4267 9.38839C28.0311 2.46342 20.754 -1.15666 13.1958 0.330611C6.32116 1.68371 0.881651 7.5138 0.1185 14.5008C-0.525685 20.3942 1.46256 25.3116 5.93642 29.2077C6.2275 29.4608 6.28066 29.5937 6.05285 29.9469C3.36221 34.1239 3.04454 38.5021 5.24414 42.9487C7.56776 47.6472 12.4491 50.3003 17.6735 49.875C20.7514 49.6244 23.399 48.4067 25.6012 46.2397C26.2529 45.598 26.2719 44.6411 25.6695 44.0234C25.0506 43.3892 24.1521 43.3981 23.461 44.0499C21.0438 46.3321 18.1899 47.2485 14.912 46.7017C7.96769 45.5448 4.57591 37.2617 8.67262 31.5341C8.86246 31.2696 8.99662 31.2316 9.28011 31.3734C10.8393 32.1505 12.4858 32.6606 14.2146 32.891C18.1418 33.4163 21.8031 32.6493 25.1924 30.6038C26.3137 29.9266 26.4124 28.8153 25.467 27.9052C20.9324 23.5446 13.8375 23.1333 8.87132 26.9711C8.48405 27.271 8.29295 27.1951 7.97908 26.928C5.37197 24.7079 3.7672 21.927 3.20401 18.5398C3.13061 18.1006 3.23059 18.0424 3.62672 18.0437C8.26004 18.055 12.8934 18.0512 17.5267 18.0512C22.1284 18.0512 26.7301 18.0512 31.3318 18.0512C32.4467 18.0512 33.0618 17.4525 33.0416 16.345C32.9985 13.9147 32.505 11.5857 31.4267 9.38839ZM21.755 28.9267C18.2797 30.3228 14.8791 30.3392 11.4455 28.995C13.9084 27.1204 18.4379 26.7306 21.755 28.9267ZM29.4498 14.9894C25.1215 14.978 20.7919 14.9818 16.4636 14.9818C12.1821 14.9805 7.90188 14.9767 3.62039 14.9881C3.23059 14.9894 3.11921 14.9476 3.20527 14.4995C4.26331 8.94917 7.45766 5.25568 12.8478 3.58741C18.9986 1.68371 25.6708 4.71647 28.631 10.6491C29.2448 11.8794 29.6308 13.1819 29.8346 14.5438C29.8902 14.9236 29.813 14.9906 29.4498 14.9894Z" fill="#090909"/>
<path d="M16.5205 56.1597C12.8832 56.1597 9.93433 59.1089 9.93433 62.7467C9.93433 66.3845 12.8832 69.3337 16.5205 69.3337C20.1578 69.3337 23.1066 66.3845 23.1066 62.7467C23.1066 59.1076 20.1578 56.1597 16.5205 56.1597ZM20.54 59.3393C21.2006 60.119 21.6208 61.0733 21.7486 62.0872H19.1364C19.0542 60.5658 18.6783 59.0734 18.0278 57.695C19.0073 57.9887 19.8806 58.5595 20.54 59.3393ZM16.5205 57.6393C17.2798 59.0064 17.7228 60.5265 17.8177 62.0872H15.2245H15.2232C15.3181 60.5265 15.7611 59.0076 16.5205 57.6393ZM12.5009 59.3393C13.1616 58.5595 14.0336 57.9887 15.0131 57.695C14.3639 59.0734 13.9867 60.5645 13.9045 62.0872H11.2923C11.4201 61.0746 11.8403 60.119 12.5009 59.3393ZM12.5009 66.1528C11.8403 65.3731 11.4201 64.4188 11.2923 63.4049H13.9045C13.9867 64.9263 14.3626 66.4187 15.0131 67.7971C14.0336 67.5034 13.1603 66.9326 12.5009 66.1528ZM16.5205 67.8528C15.7814 66.5212 15.3219 65.0111 15.2232 63.4049H17.819C17.7228 64.9656 17.2798 66.4857 16.5205 67.8528ZM20.54 66.1528C19.8793 66.9326 19.0073 67.5034 18.0278 67.7971C18.677 66.4187 19.0542 64.9276 19.1364 63.4049H21.7486C21.6208 64.4188 21.2006 65.3731 20.54 66.1528Z" fill="#1B8C9C"/>
<path d="M256.285 29.232C246.31 28.4276 236.363 28.9987 226.432 29.9966C223.257 30.3159 220.089 30.6813 216.644 31.0559C216.985 30.6107 217.141 30.3651 217.338 30.1532C219.61 27.7306 222.017 25.4461 224.457 23.1985C224.961 22.7348 225.667 22.0286 225.203 21.3593C224.675 20.5978 223.929 21.347 223.322 21.6018C222.904 21.7768 222.536 22.0747 222.161 22.3418C219.441 24.264 217.043 26.5668 214.661 28.8697C213.067 30.4111 211.437 31.6485 209.116 31.6516C208.825 31.6516 208.524 31.7867 208.241 31.9003C207.67 32.1275 207.514 32.5758 207.636 33.1469C207.765 33.7365 208.195 33.7764 208.696 33.7549C209.107 33.7396 209.558 33.3864 210.059 33.9545C209.426 34.6669 208.843 35.4345 208.149 36.0854C206.402 37.7251 204.511 39.2358 203.535 41.5233C203.378 41.8887 203.034 41.9624 202.733 42.1497C200.548 43.5191 198.15 43.774 195.657 43.6512C193.115 43.5253 192.314 42.1742 193.376 39.8836C193.901 38.7476 194.877 38.1181 195.798 37.3904C196.467 36.8592 196.728 36.1069 196.234 35.3577C195.835 34.7498 195.11 34.501 194.481 34.9432C192.292 36.4877 189.612 37.2522 187.813 39.4446C185.949 41.7167 183.321 42.9112 180.61 43.8845C180.193 44.035 179.649 44.21 179.112 43.7433C179.441 43.2397 179.714 42.7576 180.048 42.3247C180.712 41.468 181.191 40.5806 180.491 39.5459C179.803 38.5265 178.759 38.3361 177.638 38.5633C176.03 38.8888 174.525 39.5183 173.033 40.1907C170.989 41.1088 168.919 41.9777 166.856 42.859C166.583 42.9757 166.264 43.1476 166.003 42.8958C165.788 42.687 165.951 42.4199 166.067 42.2019C166.706 40.986 166.961 39.6871 165.944 38.6462C164.925 37.5992 163.58 38.0291 162.334 38.3515C159.942 38.9717 157.747 40.031 155.629 41.2777C154.45 41.9716 153.216 42.5366 151.794 42.601C152.556 41.7106 153.382 40.9675 154.257 40.2828C155.153 39.5797 155.93 38.7721 156.538 37.8203C156.986 37.114 157.671 36.4047 157.096 35.456C156.556 34.5594 155.641 34.3874 154.699 34.3905C154.25 34.3905 153.79 34.501 153.357 34.63C149.065 35.9166 145.805 38.7936 142.572 41.6922C141 43.1015 139.182 43.82 137.07 44.0534C137.006 43.0892 137.663 42.6502 138.034 42.0791C138.498 41.3698 138.903 40.6881 138.464 39.8192C137.994 38.8919 137.187 38.4804 136.211 38.5142C135.511 38.5388 134.804 38.723 134.123 38.9195C131.415 39.7056 128.99 41.1702 126.38 42.1896C125.52 42.5243 124.701 43.1476 123.648 42.8989C123.681 42.6778 123.666 42.5059 123.737 42.383C124.452 41.1395 124.75 39.7977 123.749 38.6646C122.819 37.6115 121.486 37.983 120.292 38.2962C117.959 38.9072 115.785 39.8928 113.707 41.118C112.414 41.8825 111.079 42.601 109.083 42.7945C110.127 41.901 110.836 41.2562 111.582 40.6635C112.672 39.8007 113.682 38.8734 114.431 37.6913C115.61 35.8336 114.965 34.5348 112.78 34.3844C112.215 34.3444 111.674 34.4488 111.122 34.6116C107.391 35.72 104.487 38.1396 101.589 40.5714C100.22 41.7198 98.5834 41.8549 97.1189 40.8723C96.3545 40.3596 95.8264 39.7854 96.2102 38.7107C96.4834 37.9431 96.4343 37.0956 96.069 36.3157C95.6269 35.3761 94.8655 34.9647 93.8523 34.9985C92.9344 35.0292 91.9213 34.9647 91.427 35.9442C90.9695 36.853 91.4085 37.5623 92.1024 38.2379C92.7625 38.8827 92.8576 39.8161 92.1945 40.4548C90.6717 41.9255 88.7345 42.7515 86.7573 43.4178C86.0297 43.6634 85.3236 43.2766 85.0105 42.5151C84.6881 41.726 85.2561 41.2899 85.7933 40.8754C86.7911 40.0986 87.9639 39.7884 89.1827 39.5643C90.3064 39.3586 90.7546 38.6247 90.4108 37.547C90.0884 36.5429 89.3915 36.024 88.2832 36.3802C87.2578 36.7087 86.2815 37.1355 85.4004 37.7681C83.7763 38.9349 82.7232 40.8048 81.2803 41.9194C79.1803 43.5437 76.3037 44.2561 73.4577 43.9951C72.202 43.8784 71.7722 42.9357 72.2788 41.7536C72.77 40.6052 73.6112 39.7055 74.4739 38.8335C74.8607 38.4436 75.3888 38.2993 75.8953 38.4773C77.2738 38.9656 78.3361 38.8919 78.9102 37.2737C79.1067 36.721 80.0522 36.4293 79.558 35.6126C79.0299 34.7405 78.1426 34.7651 77.3751 35.0507C76.3344 35.4406 75.3734 36.0424 74.3664 36.5306C72.1652 37.5961 70.5503 39.2266 69.5402 41.4527C69.3038 41.9747 69.0613 42.4199 68.478 42.6717C65.7916 43.8323 63.0316 43.8814 60.2225 43.295C59.7712 43.1998 59.24 42.9941 59.2339 42.4813C59.2278 41.9132 59.8479 41.8979 60.2593 41.7597C61.6194 41.3114 62.961 40.8232 64.0355 39.8253C65.2359 38.7107 65.6258 36.9912 64.9381 35.9503C64.2996 34.98 62.3286 34.5102 61.0054 35.1735C58.9637 36.199 57.2291 37.6514 56.1362 39.6902C54.509 42.7331 55.8906 45.4996 59.2922 46.04C62.4391 46.5405 65.5092 46.2273 68.4012 44.8149C69.0152 44.514 69.4297 44.339 69.9424 45.0114C70.6117 45.8865 71.6463 46.0738 72.6963 46.1045C75.6774 46.1905 78.4282 45.3185 81.093 44.0872C81.5105 43.8937 81.8697 43.4147 82.2904 44.2039C83.3311 46.1598 85.0627 46.3655 87.0306 45.9326C89.1766 45.4597 90.9849 44.3144 92.7471 43.0954C93.5515 42.5396 94.2914 42.4322 95.1571 42.9204C98.1382 44.5907 100.766 44.0043 103.256 41.7812C105.006 40.2183 106.934 38.8581 109.043 37.7926C109.58 37.5194 110.173 37.3474 110.753 37.1632C111.045 37.0711 111.432 37.0035 111.601 37.2952C111.8 37.636 111.628 38.0045 111.327 38.2471C110.256 39.1129 109.2 40.0034 108.088 40.8109C106.563 41.9194 104.972 42.9388 103.449 44.0534C103.014 44.3727 102.574 44.8487 102.805 45.4965C103.044 46.169 103.661 46.0769 104.226 46.1168C107.216 46.3133 109.78 44.953 112.417 43.8814C114.68 42.9634 116.854 41.8058 119.251 41.2531C119.742 41.1395 120.485 40.8662 120.777 41.468C121.053 42.0361 120.396 42.4475 120.08 42.8897C119.994 43.0094 119.853 43.0923 119.727 43.1814C118.861 43.7863 117.873 44.6214 118.352 45.6255C118.871 46.7186 120.197 46.1782 121.121 45.951C124.63 45.082 128.118 44.1179 131.458 42.687C132.462 42.2572 133.447 41.6891 134.629 41.772C134.657 42.4168 134.31 42.7914 133.969 43.163C133.457 43.7187 132.747 44.2192 133.119 45.1127C133.49 46.0062 134.372 46.0615 135.182 46.1475C135.633 46.1966 136.094 46.2181 136.545 46.1751C139.713 45.865 142.372 44.4495 144.739 42.3861C147.054 40.3688 149.492 38.5203 152.332 37.2952C152.786 37.0987 153.511 36.7732 153.836 37.4057C154.106 37.9308 153.504 38.2901 153.13 38.6186C151.549 40.0003 149.817 41.1763 148.064 42.3247C147.128 42.9388 146.139 43.4884 145.372 44.3328C145.034 44.7043 144.905 45.1311 145.086 45.6009C145.261 46.0584 145.673 46.1199 146.105 46.1045C147.122 46.0677 148.132 46.1475 149.151 45.8834C151.638 45.2448 153.934 44.1394 156.28 43.1537C158.063 42.4076 159.804 41.5171 161.738 41.2162C162.156 41.1518 162.742 40.9491 163.003 41.4343C163.261 41.9102 162.755 42.2541 162.506 42.6133C162.365 42.8191 162.156 42.9849 161.959 43.1476C161.137 43.8354 159.955 44.6276 160.596 45.7268C161.143 46.6603 162.475 46.1659 163.442 45.9233C167.151 44.996 170.826 43.9521 174.338 42.4076C175.115 42.0668 175.919 41.6123 176.905 41.7966C176.708 42.6379 176.238 43.0954 175.781 43.5775C174.823 44.5877 175.072 45.5764 176.42 45.9755C177.196 46.2058 178.004 46.2918 178.842 46.1874C182.851 45.69 185.992 43.4239 189.25 41.1886C189.243 44.907 190.923 46.6019 194.499 46.3225C197.035 46.1229 199.584 45.8067 201.923 44.6552C202.519 44.3635 202.964 44.1486 203.225 45.0912C203.486 46.0431 204.278 46.519 205.232 46.7861C208.616 47.7257 214.431 45.8988 216.586 43.1906C216.81 42.9081 217.111 42.6287 216.841 42.251C216.595 41.9071 216.205 41.9685 215.861 42.0883C215.527 42.205 215.189 42.3401 214.891 42.5304C213.107 43.6727 211.133 44.3297 209.113 44.8824C208.149 45.1465 207.139 45.3952 206.457 44.4157C205.773 43.4332 206.344 42.5059 206.955 41.7567C209.107 39.1007 211.235 36.414 213.777 34.1049C214.569 33.3864 215.53 33.0057 216.555 32.9535C225.078 32.5206 233.523 31.0344 242.077 31.0713C247.336 31.0928 252.592 30.3651 257.854 31.0682C258.532 31.1603 259.355 31.2893 260 30.6107C258.901 29.6251 257.599 29.3395 256.285 29.232Z" fill="#090909"/>
<path d="M205.014 25.6641C205.84 25.4185 206.841 25.4369 207.068 24.4021C207.191 23.8464 205.512 22.0471 205.045 22.0962C203.971 22.2098 203.019 22.9805 203.056 23.8341C203.086 24.6017 203.968 25.4584 205.014 25.6641Z" fill="#090909"/>
</svg>
