<svg width="20" height="20" viewBox="0 0 20 20" fill="none" xmlns="http://www.w3.org/2000/svg">
<path fill-rule="evenodd" clip-rule="evenodd" d="M2.25 9.59999C2.25 9.18577 2.58579 8.84999 3 8.84999H17C17.4142 8.84999 17.75 9.18577 17.75 9.59999C17.75 10.0142 17.4142 10.35 17 10.35H3C2.58579 10.35 2.25 10.0142 2.25 9.59999Z" fill="#3C3C3C"/>
<path fill-rule="evenodd" clip-rule="evenodd" d="M9.13033 3.46967C9.42322 3.76256 9.42322 4.23744 9.13033 4.53033L4.06066 9.6L9.13033 14.6697C9.42322 14.9626 9.42322 15.4374 9.13033 15.7303C8.83744 16.0232 8.36256 16.0232 8.06967 15.7303L2.46967 10.1303C2.17678 9.83744 2.17678 9.36256 2.46967 9.06967L8.06967 3.46967C8.36256 3.17678 8.83744 3.17678 9.13033 3.46967Z" fill="#3C3C3C"/>
</svg>
