<svg width="20" height="20" viewBox="0 0 20 20" fill="none" xmlns="http://www.w3.org/2000/svg">
<path d="M12.5859 20H5.125C3.40182 20 2 18.5982 2 16.875V6.28906C2 4.56589 3.40182 3.16406 5.125 3.16406H12.5859C14.3091 3.16406 15.7109 4.56589 15.7109 6.28906V16.875C15.7109 18.5982 14.3091 20 12.5859 20ZM5.125 4.72656C4.26349 4.72656 3.5625 5.42755 3.5625 6.28906V16.875C3.5625 17.7365 4.26349 18.4375 5.125 18.4375H12.5859C13.4474 18.4375 14.1484 17.7365 14.1484 16.875V6.28906C14.1484 5.42755 13.4474 4.72656 12.5859 4.72656H5.125ZM18.8359 14.9219V3.125C18.8359 1.40182 17.4341 0 15.7109 0H7.03906C6.60754 0 6.25781 0.349731 6.25781 0.78125C6.25781 1.21277 6.60754 1.5625 7.03906 1.5625H15.7109C16.5724 1.5625 17.2734 2.26349 17.2734 3.125V14.9219C17.2734 15.3534 17.6232 15.7031 18.0547 15.7031C18.4862 15.7031 18.8359 15.3534 18.8359 14.9219Z" fill="#07A0B8"/>
</svg>
