<svg width="20" height="20" viewBox="0 0 20 20" fill="none" xmlns="http://www.w3.org/2000/svg">
<circle cx="10" cy="10" r="10" fill="#999999"/>
<path fill-rule="evenodd" clip-rule="evenodd" d="M6.12939 6.13019C6.30296 5.95662 6.58437 5.95662 6.75793 6.13019L13.869 13.2413C14.0426 13.4149 14.0426 13.6963 13.869 13.8698C13.6955 14.0434 13.4141 14.0434 13.2405 13.8698L6.12939 6.75873C5.95583 6.58516 5.95583 6.30375 6.12939 6.13019Z" fill="white"/>
<path fill-rule="evenodd" clip-rule="evenodd" d="M13.869 6.13019C14.0426 6.30375 14.0426 6.58516 13.869 6.75873L6.75793 13.8698C6.58437 14.0434 6.30296 14.0434 6.12939 13.8698C5.95583 13.6963 5.95583 13.4149 6.12939 13.2413L13.2405 6.13019C13.4141 5.95662 13.6955 5.95662 13.869 6.13019Z" fill="white"/>
<path fill-rule="evenodd" clip-rule="evenodd" d="M5.91726 5.91805C6.20799 5.62733 6.67934 5.62733 6.97006 5.91805L9.99922 8.94721L13.0284 5.91805C13.3191 5.62733 13.7905 5.62733 14.0812 5.91805C14.3719 6.20878 14.3719 6.68013 14.0812 6.97086L11.052 10L14.0812 13.0292C14.3719 13.3199 14.3719 13.7912 14.0812 14.082C13.7905 14.3727 13.3191 14.3727 13.0284 14.082L9.99922 11.0528L6.97006 14.082C6.67934 14.3727 6.20799 14.3727 5.91726 14.082C5.62654 13.7912 5.62654 13.3199 5.91726 13.0292L8.94641 10L5.91726 6.97086C5.62654 6.68013 5.62654 6.20878 5.91726 5.91805ZM9.37068 10.4243L6.34153 13.4534C6.28512 13.5098 6.28512 13.6013 6.34153 13.6577C6.39793 13.7141 6.48939 13.7141 6.5458 13.6577L9.57495 10.6286L9.37068 10.4243ZM9.99922 10.2043L9.79494 10L9.99922 9.79574L10.2035 10L9.99922 10.2043ZM10.4235 10.6286L13.4526 13.6577C13.509 13.7141 13.6005 13.7141 13.6569 13.6577C13.7133 13.6013 13.7133 13.5098 13.6569 13.4534L10.6278 10.4243L10.4235 10.6286ZM10.6278 9.57575L13.6569 6.54659C13.7133 6.49019 13.7133 6.39873 13.6569 6.34232C13.6005 6.28591 13.509 6.28591 13.4526 6.34232L10.4235 9.37147L10.6278 9.57575ZM9.57495 9.37147L9.37068 9.57575L6.34153 6.54659C6.28512 6.49019 6.28512 6.39873 6.34153 6.34232C6.39793 6.28591 6.48939 6.28591 6.5458 6.34232L9.57495 9.37147Z" fill="white"/>
</svg>
