<svg width="18" height="18" viewBox="0 0 18 18" fill="none" xmlns="http://www.w3.org/2000/svg">
<path fill-rule="evenodd" clip-rule="evenodd" d="M1.16399 1.16351C1.51547 0.812034 2.08531 0.812034 2.43679 1.16351L16.8368 15.5635C17.1883 15.915 17.1883 16.4848 16.8368 16.8363C16.4853 17.1878 15.9155 17.1878 15.564 16.8363L1.16399 2.4363C0.812523 2.08483 0.812523 1.51498 1.16399 1.16351Z" fill="#3C3C3C"/>
<path fill-rule="evenodd" clip-rule="evenodd" d="M16.8368 1.16351C17.1883 1.51498 17.1883 2.08483 16.8368 2.4363L2.43679 16.8363C2.08531 17.1878 1.51547 17.1878 1.16399 16.8363C0.812523 16.4848 0.812523 15.915 1.16399 15.5635L15.564 1.16351C15.9155 0.812034 16.4853 0.812034 16.8368 1.16351Z" fill="#3C3C3C"/>
</svg>
