<svg width="16" height="16" viewBox="0 0 16 16" fill="none" xmlns="http://www.w3.org/2000/svg">
<g clip-path="url(#clip0_1578_5770)">
<path d="M2.19599 9.44043C0.979934 9.44043 0 10.459 0 11.6878V13.7528C0 14.9816 0.979759 16.0006 2.19599 16.0006H13.804C15.0202 16.0006 15.9999 14.9816 15.9999 13.7528V11.6878C15.9999 10.459 15.02 9.44043 13.804 9.44043H11.3657C11.0967 9.44031 10.8784 9.65831 10.8783 9.92737C10.8781 10.1966 11.0965 10.4149 11.3657 10.4148H13.804C14.4819 10.4148 15.0256 10.9668 15.0256 11.6878V13.7528C15.0256 14.4738 14.4817 15.0263 13.804 15.0263H2.19599C1.51828 15.0263 0.974378 14.4738 0.974378 13.7528V11.6878C0.974378 10.9668 1.51811 10.4148 2.19599 10.4148H4.63423C4.90329 10.4147 5.12128 10.1964 5.12115 9.92737C5.12099 9.6585 4.9031 9.44058 4.63423 9.44043H2.19599Z" fill="#07A0B8"/>
<path d="M7.9999 8.75977C7.87624 8.75964 7.75283 8.71297 7.65804 8.61928L4.92065 5.91062C4.72936 5.72143 4.72837 5.4131 4.91714 5.22176C5.10579 5.02991 5.41411 5.02741 5.60598 5.21622L7.51351 7.1076V0.487374C7.51351 0.218293 7.73135 -6.77109e-05 8.00044 -6.77109e-05C8.26952 -6.77109e-05 8.48789 0.218293 8.48789 0.487374V7.10711L10.4004 5.21068C10.5923 5.02207 10.9006 5.02457 11.0893 5.21622C11.2784 5.40756 11.2769 5.71589 11.0852 5.90508L8.34236 8.61928C8.24758 8.71299 8.12357 8.75964 7.9999 8.75977Z" fill="#07A0B8"/>
</g>
<defs>
<clipPath id="clip0_1578_5770">
<rect width="15.9999" height="15.9999" fill="white"/>
</clipPath>
</defs>
</svg>
