<svg width="66" height="79" viewBox="0 0 66 79" fill="none" xmlns="http://www.w3.org/2000/svg">
<g filter="url(#filter0_d_6870_87152)">
<path d="M31.7179 63.7786L33 65.8897L34.2821 63.7786L40.3583 53.7737C48.345 50.7049 54 42.8009 54 33.5676C54 21.697 44.6383 12 33 12C21.3617 12 12 21.697 12 33.5676C12 42.8009 17.6551 50.7049 25.6417 53.7737L31.7179 63.7786Z" fill="#F54E4E" stroke="white" stroke-width="3"/>
<path d="M43.7067 28.221L33.3942 21.1169C33.1558 20.961 32.8442 20.961 32.6058 21.1169L22.2933 28.221C22.11 28.3494 22 28.5602 22 28.7894V42.081C22 42.5852 22.4125 42.9977 22.9167 42.9977H26.5833V32.6852C26.5833 32.3066 26.8932 31.9977 27.2708 31.9977H38.7292C39.1077 31.9977 39.4167 32.3066 39.4167 32.6852V42.9977H43.0833C43.5875 42.9977 44 42.5852 44 42.081V28.7894C44 28.5602 43.89 28.3494 43.7067 28.221Z" fill="white"/>
<path d="M27.9583 37.0394H38.0417V39.331H27.9583V37.0394Z" fill="white"/>
<path d="M27.9583 40.706H38.0417V42.9977H27.9583V40.706Z" fill="white"/>
<path d="M27.9583 33.3727H38.0417V35.6644H27.9583V33.3727Z" fill="white"/>
</g>
<defs>
<filter id="filter0_d_6870_87152" x="-7" y="-1" width="80" height="80" filterUnits="userSpaceOnUse" color-interpolation-filters="sRGB">
<feFlood flood-opacity="0" result="BackgroundImageFix"/>
<feColorMatrix in="SourceAlpha" type="matrix" values="0 0 0 0 0 0 0 0 0 0 0 0 0 0 0 0 0 0 127 0" result="hardAlpha"/>
<feOffset/>
<feGaussianBlur stdDeviation="5"/>
<feComposite in2="hardAlpha" operator="out"/>
<feColorMatrix type="matrix" values="0 0 0 0 0 0 0 0 0 0 0 0 0 0 0 0 0 0 0.2 0"/>
<feBlend mode="normal" in2="BackgroundImageFix" result="effect1_dropShadow_6870_87152"/>
<feBlend mode="normal" in="SourceGraphic" in2="effect1_dropShadow_6870_87152" result="shape"/>
</filter>
</defs>
</svg>
