<svg width="20" height="20" viewBox="0 0 20 20" fill="none" xmlns="http://www.w3.org/2000/svg">
<g clip-path="url(#clip0_1028_981)">
<path d="M9.99933 0C9.84476 0.000158347 9.69049 0.0584953 9.572 0.17561L6.15026 3.56144C5.91114 3.79793 5.9099 4.18335 6.14587 4.42252C6.38168 4.66233 6.76708 4.66546 7.00692 4.42945L9.39135 2.06521V10.3405C9.39135 10.6769 9.66365 10.9498 10 10.9498C10.3364 10.9498 10.6093 10.6769 10.6093 10.3405V2.06583L13 4.43637C13.2398 4.67214 13.6252 4.66901 13.8611 4.42945C14.0975 4.19027 14.0956 3.80485 13.856 3.56837L10.4274 0.17561C10.3089 0.0584709 10.1539 0.000158347 9.99933 0ZM2.745 6.80033C1.22492 6.80033 0 8.07353 0 9.60955V17.1908C0 18.7268 1.2247 20.0006 2.745 20.0006H17.255C18.7753 20.0006 20 18.7268 20 17.1908V9.60955C20 8.07353 18.7751 6.80033 17.255 6.80033H14.2072C13.8709 6.80018 13.5981 7.07268 13.5979 7.409C13.5977 7.74558 13.8706 8.01846 14.2072 8.01831H17.255C18.1024 8.01831 18.782 8.7083 18.782 9.60955V17.1908C18.782 18.092 18.1022 18.7826 17.255 18.7826H2.745C1.89786 18.7826 1.21798 18.092 1.21798 17.1908V9.60955C1.21798 8.7083 1.89764 8.01831 2.745 8.01831H5.7928C6.12913 8.01811 6.40162 7.74533 6.40146 7.409C6.40126 7.07292 6.12889 6.80052 5.7928 6.80033H2.745Z" fill="#07A0B8"/>
</g>
<defs>
<clipPath id="clip0_1028_981">
<rect width="20" height="20" fill="white"/>
</clipPath>
</defs>
</svg>
