<svg width="20" height="20" viewBox="0 0 20 20" fill="none" xmlns="http://www.w3.org/2000/svg">
<g clip-path="url(#clip0_1028_516)">
<path d="M5.79996 17.2553C5.79996 18.7754 7.07316 20.0003 8.60918 20.0003H17.1904C18.7264 20.0003 20.0002 18.7756 20.0002 17.2553V2.74531C20.0002 1.22501 18.7264 0.000305176 17.1904 0.000305176H8.60918C7.07316 0.000305176 5.79996 1.22523 5.79996 2.74531V5.79311C5.79981 6.12944 6.07231 6.40224 6.40864 6.40243C6.74521 6.40259 7.01809 6.12968 7.01794 5.79311V2.74531C7.01794 1.89793 7.70793 1.21828 8.60918 1.21828H17.1904C18.0917 1.21828 18.7823 1.89815 18.7823 2.74531V17.2553C18.7823 18.1024 18.0917 18.7823 17.1904 18.7823H8.60918C7.70793 18.7823 7.01794 18.1027 7.01794 17.2553V14.2075C7.01775 13.8712 6.74496 13.5987 6.40864 13.5988C6.07256 13.599 5.80016 13.8714 5.79996 14.2075V17.2553Z" fill="#07A0B8"/>
<path d="M13.9493 10.001C13.9492 10.1555 13.8908 10.3098 13.7737 10.4283L10.3879 13.85C10.1514 14.0892 9.76599 14.0904 9.52682 13.8544C9.28701 13.6186 9.28388 13.2332 9.51989 12.9934L11.8841 10.609H0.608816C0.272464 10.609 -0.000488281 10.3367 -0.000488281 10.0003C-0.000488281 9.66395 0.272464 9.39098 0.608816 9.39098H11.8835L9.51297 7.00031C9.2772 6.76046 9.28033 6.37506 9.51989 6.13925C9.75907 5.90282 10.1445 5.90472 10.381 6.14431L13.7737 9.5729C13.8909 9.69137 13.9492 9.84639 13.9493 10.001Z" fill="#07A0B8"/>
</g>
<defs>
<clipPath id="clip0_1028_516">
<rect width="20" height="20" fill="white"/>
</clipPath>
</defs>
</svg>
