<svg width="50" height="50" viewBox="0 0 50 50" fill="none" xmlns="http://www.w3.org/2000/svg">
<circle opacity="0.15" cx="25" cy="25" r="25" fill="#999999"/>
<circle cx="25" cy="25" r="21.5" fill="#999999" stroke="white" stroke-width="3"/>
<path d="M12.5 29.7039C12.5 29.9603 12.6796 30.1614 12.9359 30.1614H13.6319C14.0996 29.1299 15.1643 28.3493 16.4006 28.3493C17.6369 28.3493 18.7014 29.1299 19.1693 30.1614H28.2158V26.46H12.5V29.7039Z" fill="white"/>
<path d="M16.4006 29.3274C15.2675 29.3274 14.349 30.2459 14.349 31.379C14.349 32.512 15.2675 33.4305 16.4006 33.4305C17.5331 33.4293 18.4508 32.5115 18.4521 31.379C18.4521 30.246 17.5336 29.3274 16.4006 29.3274Z" fill="white"/>
<path d="M37.2327 24.9523L35.2788 24.0935H29.1867V30.1614H30.3692C30.8372 29.1299 31.9016 28.3493 33.1379 28.3493C34.3741 28.3493 35.4389 29.1299 35.9065 30.1614H37.0638C37.3201 30.1614 37.4997 29.9603 37.4997 29.7039V25.3937C37.5061 25.2066 37.4014 25.0334 37.2327 24.9523Z" fill="white"/>
<path d="M33.2701 20.595C33.0263 20.1275 32.5394 19.8376 32.0122 19.846H29.1867V23.1227H34.582L33.2701 20.595Z" fill="white"/>
<path d="M26.8224 16.5693H13.8861C13.1059 16.5693 12.5 17.2117 12.5 17.992V25.4891H28.2158V17.992C28.2158 17.9898 28.2159 17.9876 28.2159 17.9854C28.2221 17.2096 27.5982 16.5756 26.8224 16.5693Z" fill="white"/>
<path d="M33.1377 29.3274C32.0047 29.3275 31.0862 30.246 31.0862 31.379C31.0863 32.5121 32.0048 33.4306 33.1379 33.4305C34.2704 33.4293 35.1881 32.5115 35.1893 31.379C35.1893 30.246 34.2708 29.3274 33.1377 29.3274Z" fill="white"/>
</svg>
