<svg width="16" height="16" viewBox="0 0 16 16" fill="none" xmlns="http://www.w3.org/2000/svg">
<path fill-rule="evenodd" clip-rule="evenodd" d="M14.2002 7.67996C14.2002 7.34859 13.9316 7.07996 13.6002 7.07996H2.4002C2.06882 7.07996 1.80019 7.34859 1.80019 7.67996C1.80019 8.01133 2.06882 8.27996 2.4002 8.27996H13.6002C13.9316 8.27996 14.2002 8.01133 14.2002 7.67996Z" fill="#3C3C3C"/>
<path fill-rule="evenodd" clip-rule="evenodd" d="M8.69593 2.77571C8.46162 3.01003 8.46162 3.38993 8.69593 3.62424L12.7517 7.67998L8.69593 11.7357C8.46162 11.97 8.46162 12.3499 8.69593 12.5842C8.93025 12.8186 9.31014 12.8186 9.54446 12.5842L14.0245 8.10424C14.2588 7.86993 14.2588 7.49003 14.0245 7.25571L9.54446 2.77571C9.31014 2.5414 8.93025 2.5414 8.69593 2.77571Z" fill="#3C3C3C"/>
</svg>
