<svg width="14" height="11" viewBox="0 0 14 11" fill="none" xmlns="http://www.w3.org/2000/svg">
<path fill-rule="evenodd" clip-rule="evenodd" d="M13.2002 5.68009C13.2002 5.34872 12.9316 5.08009 12.6002 5.08009H1.4002C1.06882 5.08009 0.800195 5.34872 0.800195 5.68009C0.800195 6.01146 1.06882 6.28009 1.4002 6.28009H12.6002C12.9316 6.28009 13.2002 6.01146 13.2002 5.68009Z" fill="#3C3C3C"/>
<path fill-rule="evenodd" clip-rule="evenodd" d="M7.69593 0.775834C7.46162 1.01015 7.46162 1.39005 7.69593 1.62436L11.7517 5.6801L7.69593 9.73584C7.46162 9.97015 7.46162 10.35 7.69593 10.5844C7.93025 10.8187 8.31014 10.8187 8.54446 10.5844L13.0245 6.10436C13.2588 5.87005 13.2588 5.49015 13.0245 5.25583L8.54446 0.775834C8.31014 0.541519 7.93025 0.541519 7.69593 0.775834Z" fill="#3C3C3C"/>
</svg>
