<svg width="16" height="16" viewBox="0 0 16 16" fill="none" xmlns="http://www.w3.org/2000/svg">
<path fill-rule="evenodd" clip-rule="evenodd" d="M1.7998 7.67996C1.7998 7.34859 2.06843 7.07996 2.3998 7.07996H13.5998C13.9312 7.07996 14.1998 7.34859 14.1998 7.67996C14.1998 8.01133 13.9312 8.27996 13.5998 8.27996H2.3998C2.06843 8.27996 1.7998 8.01133 1.7998 7.67996Z" fill="#3C3C3C"/>
<path fill-rule="evenodd" clip-rule="evenodd" d="M7.30407 2.77571C7.53838 3.01003 7.53838 3.38993 7.30407 3.62424L3.24833 7.67998L7.30407 11.7357C7.53838 11.97 7.53838 12.3499 7.30407 12.5842C7.06975 12.8186 6.68986 12.8186 6.45554 12.5842L1.97554 8.10424C1.74123 7.86993 1.74123 7.49003 1.97554 7.25571L6.45554 2.77571C6.68986 2.5414 7.06975 2.5414 7.30407 2.77571Z" fill="#3C3C3C"/>
</svg>
