<svg width="14" height="11" viewBox="0 0 14 11" fill="none" xmlns="http://www.w3.org/2000/svg">
<path fill-rule="evenodd" clip-rule="evenodd" d="M0.799805 5.68009C0.799805 5.34872 1.06843 5.08009 1.3998 5.08009H12.5998C12.9312 5.08009 13.1998 5.34872 13.1998 5.68009C13.1998 6.01146 12.9312 6.28009 12.5998 6.28009H1.3998C1.06843 6.28009 0.799805 6.01146 0.799805 5.68009Z" fill="#3C3C3C"/>
<path fill-rule="evenodd" clip-rule="evenodd" d="M6.30407 0.775834C6.53838 1.01015 6.53838 1.39005 6.30407 1.62436L2.24833 5.6801L6.30407 9.73584C6.53838 9.97015 6.53838 10.35 6.30407 10.5844C6.06975 10.8187 5.68986 10.8187 5.45554 10.5844L0.975541 6.10436C0.741226 5.87005 0.741226 5.49015 0.975541 5.25583L5.45554 0.775834C5.68986 0.541519 6.06975 0.541519 6.30407 0.775834Z" fill="#3C3C3C"/>
</svg>
