<svg width="24" height="24" viewBox="0 0 24 24" fill="none" xmlns="http://www.w3.org/2000/svg">
<path fill-rule="evenodd" clip-rule="evenodd" d="M13.7636 13.7636C14.115 13.4121 14.6849 13.4121 15.0363 13.7636L20.4363 19.1636C20.7878 19.5151 20.7878 20.0849 20.4363 20.4364C20.0849 20.7879 19.515 20.7879 19.1636 20.4364L13.7636 15.0364C13.4121 14.6849 13.4121 14.1151 13.7636 13.7636Z" fill="#999999"/>
<path fill-rule="evenodd" clip-rule="evenodd" d="M9.89995 4.50001C6.91761 4.50001 4.49995 6.91767 4.49995 9.90001C4.49995 12.8823 6.91761 15.3 9.89995 15.3C12.8823 15.3 15.3 12.8823 15.3 9.90001C15.3 6.91767 12.8823 4.50001 9.89995 4.50001ZM2.69995 9.90001C2.69995 5.92356 5.9235 2.70001 9.89995 2.70001C13.8764 2.70001 17.1 5.92356 17.1 9.90001C17.1 13.8765 13.8764 17.1 9.89995 17.1C5.9235 17.1 2.69995 13.8765 2.69995 9.90001Z" fill="#999999"/>
</svg>
