<svg width="20" height="20" viewBox="0 0 20 20" fill="none" xmlns="http://www.w3.org/2000/svg">
<g clip-path="url(#clip0_3066_51551)">
<path d="M13.4492 9.74714C14.3432 9.04802 14.9968 8.08733 15.3188 6.99902C15.6408 5.91071 15.6151 4.74905 15.2454 3.67603C14.8757 2.603 14.1803 1.6721 13.2563 1.01314C12.3322 0.354176 11.2256 0 10.0906 0C8.95569 0 7.84904 0.354176 6.925 1.01314C6.00096 1.6721 5.30559 2.603 4.93586 3.67603C4.56613 4.74905 4.54047 5.91071 4.86246 6.99902C5.18445 8.08733 5.83803 9.04802 6.73208 9.74714C5.04296 10.4192 3.59403 11.5821 2.57229 13.0857C1.55055 14.5894 1.00289 16.3647 1 18.1826V19.0913C1 19.3323 1.09574 19.5634 1.26615 19.7338C1.43657 19.9043 1.6677 20 1.9087 20H18.2653C18.5063 20 18.7374 19.9043 18.9078 19.7338C19.0783 19.5634 19.174 19.3323 19.174 19.0913V18.1826C19.1717 16.3655 18.6251 14.5908 17.6047 13.0873C16.5843 11.5838 15.1369 10.4204 13.4492 9.74714ZM6.4522 5.46081C6.4522 4.74191 6.66537 4.03916 7.06477 3.44142C7.46417 2.84368 8.03184 2.3778 8.69602 2.10269C9.36019 1.82758 10.091 1.7556 10.7961 1.89585C11.5012 2.0361 12.1488 2.38228 12.6572 2.89062C13.1655 3.39895 13.5117 4.04661 13.6519 4.75169C13.7922 5.45678 13.7202 6.18761 13.4451 6.85179C13.17 7.51596 12.7041 8.08364 12.1064 8.48303C11.5086 8.88243 10.8059 9.09561 10.087 9.09561C9.12299 9.09561 8.19846 8.71266 7.5168 8.031C6.83515 7.34934 6.4522 6.42482 6.4522 5.46081ZM2.8174 18.1826C2.8174 16.2546 3.5833 14.4055 4.94661 13.0422C6.30993 11.6789 8.15898 10.913 10.087 10.913C12.015 10.913 13.8641 11.6789 15.2274 13.0422C16.5907 14.4055 17.3566 16.2546 17.3566 18.1826H2.8174Z" fill="#07A0B8"/>
</g>
<defs>
<clipPath id="clip0_3066_51551">
<rect width="20" height="20" fill="white"/>
</clipPath>
</defs>
</svg>
