<svg width="20" height="20" viewBox="0 0 20 20" fill="none" xmlns="http://www.w3.org/2000/svg">
<path fill-rule="evenodd" clip-rule="evenodd" d="M0.000244141 0H9.06105V9.06081H0.000244141V0ZM2.09969 2.09945V6.96134H6.96158V2.09945H2.09969Z" fill="#07A0B8"/>
<path fill-rule="evenodd" clip-rule="evenodd" d="M0.000244178 10.9393H9.06105V20H0.000244178V10.9393ZM2.09969 13.0387V17.9005H6.96158V13.0387H2.09969Z" fill="#07A0B8"/>
<path fill-rule="evenodd" clip-rule="evenodd" d="M10.9395 3.75411e-08H20.0002V9.06081H10.9395V3.75411e-08ZM13.039 2.09945V6.96134H17.9008V2.09945H13.039Z" fill="#07A0B8"/>
<path fill-rule="evenodd" clip-rule="evenodd" d="M5.52512 5.58012H3.53616V3.48067H5.52512V5.58012Z" fill="#07A0B8"/>
<path fill-rule="evenodd" clip-rule="evenodd" d="M5.52512 16.5193H3.53616V14.4199H5.52512V16.5193Z" fill="#07A0B8"/>
<path fill-rule="evenodd" clip-rule="evenodd" d="M19.945 20H17.9561V17.9005H19.945V20Z" fill="#07A0B8"/>
<path fill-rule="evenodd" clip-rule="evenodd" d="M16.4643 20H14.4754V17.9005H16.4643V20Z" fill="#07A0B8"/>
<path fill-rule="evenodd" clip-rule="evenodd" d="M16.4643 5.58012H14.4754V3.48067H16.4643V5.58012Z" fill="#07A0B8"/>
<path fill-rule="evenodd" clip-rule="evenodd" d="M10.9395 10.9393H16.5196V13.9227H17.9008V10.9945H20.0002V16.0222H14.4201V13.0387H13.039V19.9448H10.9395V10.9393Z" fill="#07A0B8"/>
</svg>
