<svg width="240" height="241" viewBox="0 0 240 241" fill="none" xmlns="http://www.w3.org/2000/svg">
<g clip-path="url(#clip0_1836_35689)">
<path d="M212.201 205.909H27.7991C12.4469 205.909 0 193.464 0 178.11C0 162.756 12.4469 150.311 27.7991 150.311H212.201C227.555 150.311 240 162.758 240 178.11C240 193.464 227.555 205.909 212.201 205.909Z" fill="#E6F6F9"/>
<path d="M214.897 108.435H31.9288C18.0641 108.435 6.82568 97.1962 6.82568 83.3315C6.82568 69.4668 18.0641 58.2284 31.9288 58.2284H214.898C228.763 58.2284 240.001 69.4668 240.001 83.3315C240 97.1945 228.761 108.435 214.897 108.435Z" fill="#E6F6F9"/>
<path d="M194.388 50.5085H73.7293C65.9445 50.5085 59.6343 44.1983 59.6343 36.4135C59.6343 28.6287 65.9445 22.3185 73.7293 22.3185H194.388C202.173 22.3185 208.483 28.6287 208.483 36.4135C208.483 44.1983 202.173 50.5085 194.388 50.5085Z" fill="#E6F6F9"/>
<path d="M219.085 150.306C218.977 150.311 218.865 150.311 218.753 150.311H30.7029C30.6656 150.311 30.6267 150.311 30.5894 150.309C36.3253 150.28 41.5147 147.941 45.2765 144.177C49.0659 140.388 51.4099 135.153 51.4099 129.372C51.4099 117.846 42.1003 108.499 30.5894 108.438C30.6267 108.436 30.6656 108.436 30.7029 108.436H218.751C218.863 108.436 218.643 108.436 218.751 108.441C213.101 108.527 208.327 110.853 204.611 114.568C200.821 118.357 198.477 123.592 198.477 129.374C198.479 140.826 207.674 150.131 219.085 150.306Z" fill="#E6F6F9"/>
<path d="M139.717 177.498C139.716 177.498 139.716 177.498 139.714 177.498H137.841C137.195 177.498 136.673 176.976 136.673 176.33C136.673 175.685 137.195 175.162 137.841 175.162H139.714C139.716 175.162 139.716 175.162 139.717 175.162C140.722 175.162 141.721 175.044 142.689 174.81C143.315 174.66 143.946 175.044 144.097 175.672C144.248 176.298 143.864 176.929 143.236 177.08C142.091 177.357 140.907 177.498 139.717 177.498ZM131.401 177.498H126.247C125.603 177.498 125.079 176.976 125.079 176.33C125.079 175.685 125.601 175.162 126.247 175.162H131.401C132.046 175.162 132.569 175.685 132.569 176.33C132.569 176.976 132.045 177.498 131.401 177.498ZM119.807 177.498H114.653C114.009 177.498 113.485 176.976 113.485 176.33C113.485 175.685 114.008 175.162 114.653 175.162H119.807C120.451 175.162 120.975 175.685 120.975 176.33C120.975 176.976 120.451 177.498 119.807 177.498ZM108.212 177.498H103.058C102.412 177.498 101.89 176.976 101.89 176.33C101.89 175.685 102.412 175.162 103.058 175.162H108.212C108.857 175.162 109.38 175.685 109.38 176.33C109.38 176.976 108.857 177.498 108.212 177.498ZM96.618 177.498H91.4644C90.8204 177.498 90.2964 176.976 90.2964 176.33C90.2964 175.685 90.8188 175.162 91.4644 175.162H96.618C97.262 175.162 97.786 175.685 97.786 176.33C97.786 176.976 97.2637 177.498 96.618 177.498ZM85.0244 177.498H79.8708C79.2267 177.498 78.7028 176.976 78.7028 176.33C78.7028 175.685 79.2251 175.162 79.8708 175.162H85.0244C85.6684 175.162 86.1924 175.685 86.1924 176.33C86.1924 176.976 85.6684 177.498 85.0244 177.498ZM73.4307 177.498H68.2771C67.6331 177.498 67.1091 176.976 67.1091 176.33C67.1091 175.685 67.6315 175.162 68.2771 175.162H73.4307C74.0747 175.162 74.5987 175.685 74.5987 176.33C74.5987 176.976 74.0747 177.498 73.4307 177.498ZM61.8371 177.498H56.6835C56.0395 177.498 55.5155 176.976 55.5155 176.33C55.5155 175.685 56.0378 175.162 56.6835 175.162H61.8371C62.4811 175.162 63.0051 175.685 63.0051 176.33C63.0051 176.976 62.4811 177.498 61.8371 177.498ZM50.2418 177.498H47.2716C46.4816 177.498 45.69 177.437 44.9162 177.313C44.2787 177.213 43.8456 176.614 43.9462 175.978C44.0468 175.341 44.6453 174.908 45.2812 175.008C45.9333 175.112 46.6033 175.164 47.2716 175.164H50.2418C50.8858 175.164 51.4098 175.686 51.4098 176.332C51.4098 176.978 50.8874 177.498 50.2418 177.498ZM39.1997 174.893C38.9629 174.893 38.7244 174.822 38.5168 174.673C36.9968 173.574 35.7088 172.22 34.6917 170.646C34.3413 170.105 34.497 169.383 35.0388 169.032C35.5807 168.682 36.3025 168.838 36.6529 169.379C37.5127 170.708 38.5995 171.853 39.8843 172.781C40.4066 173.159 40.525 173.887 40.1471 174.411C39.92 174.726 39.5631 174.893 39.1997 174.893ZM148.649 174.217C148.318 174.217 147.991 174.077 147.759 173.805C147.342 173.313 147.4 172.577 147.892 172.16C149.1 171.133 150.093 169.907 150.844 168.515C151.151 167.947 151.858 167.735 152.426 168.041C152.993 168.348 153.206 169.055 152.899 169.623C152.01 171.271 150.834 172.723 149.405 173.939C149.184 174.126 148.917 174.217 148.649 174.217ZM33.5465 165.163C32.9576 165.163 32.4499 164.717 32.3866 164.119C32.3314 163.595 32.3039 163.061 32.3022 162.531V158.847C32.3022 158.201 32.8246 157.679 33.4702 157.679C34.1142 157.679 34.6382 158.201 34.6382 158.847V162.531C34.6382 162.978 34.6625 163.431 34.7095 163.874C34.7777 164.515 34.3121 165.09 33.6714 165.157C33.6292 165.162 33.5886 165.163 33.5465 165.163ZM153.511 164.068C153.499 164.068 153.49 164.068 153.478 164.068C152.834 164.051 152.325 163.514 152.343 162.87C152.346 162.758 152.348 162.644 152.348 162.531V157.748C152.348 157.103 152.87 156.581 153.516 156.581C154.161 156.581 154.684 157.103 154.684 157.748V162.531C154.684 162.665 154.682 162.8 154.679 162.933C154.661 163.567 154.142 164.068 153.511 164.068ZM33.4718 153.573C32.8278 153.573 32.3039 153.051 32.3039 152.405V147.253C32.3039 146.609 32.8262 146.085 33.4718 146.085C34.1158 146.085 34.6398 146.607 34.6398 147.253V152.405C34.6382 153.051 34.1158 153.573 33.4718 153.573ZM153.516 152.475C152.87 152.475 152.348 151.952 152.348 151.307V146.155C152.348 145.509 152.87 144.987 153.516 144.987C154.161 144.987 154.684 145.509 154.684 146.155V151.307C154.684 151.952 154.16 152.475 153.516 152.475ZM33.4718 141.979C32.8278 141.979 32.3039 141.457 32.3039 140.811V135.658C32.3039 135.014 32.8262 134.49 33.4718 134.49C34.1158 134.49 34.6398 135.012 34.6398 135.658V140.811C34.6382 141.455 34.1158 141.979 33.4718 141.979ZM153.516 140.881C152.87 140.881 152.348 140.359 152.348 139.713V134.56C152.348 133.916 152.87 133.392 153.516 133.392C154.161 133.392 154.684 133.914 154.684 134.56V139.713C154.684 140.359 154.16 140.881 153.516 140.881ZM33.4718 130.384C32.8278 130.384 32.3039 129.862 32.3039 129.216V124.064C32.3039 123.42 32.8262 122.896 33.4718 122.896C34.1158 122.896 34.6398 123.419 34.6398 124.064V129.218C34.6382 129.862 34.1158 130.384 33.4718 130.384ZM153.516 129.288C152.87 129.288 152.348 128.765 152.348 128.12V122.966C152.348 122.322 152.87 121.798 153.516 121.798C154.161 121.798 154.684 122.32 154.684 122.966V128.12C154.684 128.765 154.16 129.288 153.516 129.288ZM33.4718 118.79C32.8278 118.79 32.3039 118.268 32.3039 117.623V112.469C32.3039 111.825 32.8262 111.301 33.4718 111.301C34.1158 111.301 34.6398 111.823 34.6398 112.469V117.623C34.6382 118.268 34.1158 118.79 33.4718 118.79ZM153.516 117.694C152.87 117.694 152.348 117.172 152.348 116.526V111.372C152.348 110.728 152.87 110.204 153.516 110.204C154.161 110.204 154.684 110.727 154.684 111.372V116.526C154.684 117.172 154.16 117.694 153.516 117.694ZM33.4718 107.197C32.8278 107.197 32.3039 106.674 32.3039 106.029V100.875C32.3039 100.231 32.8262 99.7073 33.4718 99.7073C34.1158 99.7073 34.6398 100.23 34.6398 100.875V106.029C34.6382 106.674 34.1158 107.197 33.4718 107.197ZM153.516 106.1C152.87 106.1 152.348 105.578 152.348 104.932V99.7786C152.348 99.1346 152.87 98.6107 153.516 98.6107C154.161 98.6107 154.684 99.133 154.684 99.7786V104.932C154.684 105.576 154.16 106.1 153.516 106.1ZM33.4718 95.6032C32.8278 95.6032 32.3039 95.0808 32.3039 94.4352V89.2816C32.3039 88.6376 32.8262 88.1136 33.4718 88.1136C34.1158 88.1136 34.6398 88.636 34.6398 89.2816V94.4352C34.6382 95.0808 34.1158 95.6032 33.4718 95.6032ZM153.516 94.505C152.87 94.505 152.348 93.9826 152.348 93.337V88.1834C152.348 87.5394 152.87 87.0154 153.516 87.0154C154.161 87.0154 154.684 87.5378 154.684 88.1834V93.337C154.684 93.9826 154.16 94.505 153.516 94.505ZM33.4718 84.0095C32.8278 84.0095 32.3039 83.4872 32.3039 82.8416V77.6879C32.3039 77.0439 32.8262 76.52 33.4718 76.52C34.1158 76.52 34.6398 77.0423 34.6398 77.6879V82.8416C34.6382 83.4872 34.1158 84.0095 33.4718 84.0095ZM153.516 82.9113C152.87 82.9113 152.348 82.389 152.348 81.7434V76.5897C152.348 75.9457 152.87 75.4218 153.516 75.4218C154.161 75.4218 154.684 75.9441 154.684 76.5897V81.7434C154.684 82.389 154.16 82.9113 153.516 82.9113ZM33.4718 72.4159C32.8278 72.4159 32.3039 71.8935 32.3039 71.2479V66.0943C32.3039 65.4503 32.8262 64.9263 33.4718 64.9263C34.1158 64.9263 34.6398 65.4487 34.6398 66.0943V71.2479C34.6382 71.8919 34.1158 72.4159 33.4718 72.4159ZM153.516 71.3177C152.87 71.3177 152.348 70.7953 152.348 70.1497V64.9539C152.348 64.3099 152.87 63.7859 153.516 63.7859C154.161 63.7859 154.684 64.3083 154.684 64.9539V70.1497C154.684 70.7953 154.16 71.3177 153.516 71.3177ZM33.4718 60.8206C32.8278 60.8206 32.3039 60.2983 32.3039 59.6527V54.499C32.3039 53.855 32.8262 53.3311 33.4718 53.3311C34.1158 53.3311 34.6398 53.8534 34.6398 54.499V59.6527C34.6382 60.2983 34.1158 60.8206 33.4718 60.8206ZM151.473 60.1328C151.121 60.1328 150.774 59.9755 150.545 59.6737C150.312 59.3671 150.054 59.0735 149.781 58.801L147.068 56.0871C146.612 55.6313 146.612 54.8916 147.068 54.4358C147.523 53.9799 148.263 53.9799 148.719 54.4358L151.433 57.1496C151.778 57.4952 152.104 57.8666 152.401 58.2543C152.792 58.7669 152.695 59.5002 152.184 59.8911C151.97 60.0533 151.722 60.1328 151.473 60.1328ZM143.338 51.8743C143.04 51.8743 142.741 51.7608 142.512 51.5321L138.869 47.8887C138.413 47.4328 138.413 46.6931 138.869 46.2373C139.325 45.7815 140.065 45.7815 140.52 46.2373L144.164 49.8807C144.62 50.3365 144.62 51.0762 144.164 51.5321C143.937 51.7608 143.638 51.8743 143.338 51.8743ZM33.6389 49.2367C33.5789 49.2367 33.5189 49.2318 33.4572 49.2221C32.8197 49.1231 32.385 48.5262 32.4839 47.8887C32.7727 46.0345 33.4021 44.2745 34.351 42.6539C34.6771 42.0975 35.3925 41.911 35.9489 42.237C36.5053 42.5631 36.6918 43.2785 36.3658 43.8349C35.5644 45.2007 35.0356 46.6866 34.7907 48.2488C34.7014 48.8263 34.2034 49.2367 33.6389 49.2367ZM135.141 43.6775C134.843 43.6775 134.544 43.564 134.316 43.3352L131.128 40.1477C130.995 40.0147 130.854 39.8833 130.713 39.7584C130.228 39.3334 130.181 38.5953 130.606 38.1102C131.031 37.6252 131.769 37.5782 132.254 38.0032C132.434 38.1621 132.611 38.3276 132.781 38.4963L135.969 41.6839C136.424 42.1397 136.424 42.8794 135.969 43.3352C135.738 43.5623 135.44 43.6775 135.141 43.6775ZM39.7675 39.7989C39.3846 39.7989 39.0115 39.6107 38.7877 39.2668C38.4373 38.7267 38.5898 38.0032 39.1316 37.6512C40.7083 36.6276 42.4376 35.9203 44.2739 35.5472C44.9049 35.4191 45.5229 35.8262 45.6511 36.4589C45.7792 37.0915 45.3721 37.7063 44.7394 37.8361C43.1919 38.1508 41.7319 38.7477 40.4034 39.6107C40.2071 39.7373 39.9865 39.7989 39.7675 39.7989ZM125.645 37.6074C125.618 37.6074 125.588 37.6057 125.561 37.6041C125.353 37.5895 125.141 37.5814 124.931 37.5814H120.492C119.846 37.5814 119.324 37.0591 119.324 36.4134C119.324 35.7694 119.846 35.2455 120.492 35.2455H124.931C125.196 35.2455 125.463 35.2552 125.728 35.2747C126.37 35.3201 126.855 35.8798 126.808 36.5221C126.764 37.1386 126.252 37.6074 125.645 37.6074ZM114.051 37.5814H108.898C108.252 37.5814 107.73 37.0591 107.73 36.4134C107.73 35.7694 108.252 35.2455 108.898 35.2455H114.051C114.697 35.2455 115.219 35.7678 115.219 36.4134C115.218 37.0591 114.695 37.5814 114.051 37.5814ZM102.456 37.5814H97.3026C96.6586 37.5814 96.1346 37.0591 96.1346 36.4134C96.1346 35.7694 96.657 35.2455 97.3026 35.2455H102.456C103.1 35.2455 103.624 35.7678 103.624 36.4134C103.624 37.0591 103.102 37.5814 102.456 37.5814ZM90.8626 37.5814H85.7089C85.0649 37.5814 84.541 37.0591 84.541 36.4134C84.541 35.7694 85.0633 35.2455 85.7089 35.2455H90.8626C91.5066 35.2455 92.0305 35.7678 92.0305 36.4134C92.0305 37.0591 91.5082 37.5814 90.8626 37.5814ZM79.2689 37.5814H74.1169C73.4729 37.5814 72.949 37.0591 72.949 36.4134C72.949 35.7694 73.4713 35.2455 74.1169 35.2455H79.2705C79.9146 35.2455 80.4385 35.7678 80.4385 36.4134C80.4369 37.0591 79.9146 37.5814 79.2689 37.5814ZM67.6753 37.5814H62.5216C61.8776 37.5814 61.3537 37.0591 61.3537 36.4134C61.3537 35.7694 61.876 35.2455 62.5216 35.2455H67.6753C68.3193 35.2455 68.8432 35.7678 68.8432 36.4134C68.8432 37.0591 68.3193 37.5814 67.6753 37.5814ZM56.0816 37.5814H50.928C50.284 37.5814 49.76 37.0591 49.76 36.4134C49.76 35.7694 50.2824 35.2455 50.928 35.2455H56.0816C56.7256 35.2455 57.2496 35.7678 57.2496 36.4134C57.248 37.0591 56.7256 37.5814 56.0816 37.5814Z" fill="#07A0B8"/>
<path d="M178.567 184.74L177.419 185.705L171.336 190.81L167.592 186.352L167.042 185.694L166.488 185.035L159.586 176.809L159.033 176.15L158.477 175.489L152.424 168.276L151.868 167.615L151.315 166.956C151.552 166.795 151.788 166.632 152.025 166.468C153.073 165.726 154.093 164.94 155.086 164.107C156.085 163.272 157.036 162.401 157.938 161.499C158.144 161.296 158.345 161.089 158.543 160.883L159.101 161.548L159.654 162.21L165.71 169.422L166.263 170.08L166.819 170.742L173.722 178.968L174.272 179.627L174.825 180.282L177.604 183.591L178.567 184.74Z" fill="#3DC0D5"/>
<path d="M197.827 232.06L164.41 192.236C163.231 190.831 163.414 188.737 164.819 187.559L176.497 177.76C177.902 176.58 179.996 176.764 181.174 178.168L214.59 217.993C217.35 221.281 216.92 226.183 213.632 228.942L208.775 233.019C205.488 235.776 200.586 235.348 197.827 232.06Z" fill="#07A0B8"/>
<path d="M169.781 93.1619C149.596 69.1051 113.737 65.9694 89.68 86.1541C65.6265 106.339 62.4859 142.198 82.6738 166.255C101.647 188.867 134.473 192.997 158.327 176.64C158.564 176.48 158.801 176.316 159.034 176.149C159.268 175.985 159.501 175.815 159.733 175.648C160.765 174.892 161.781 174.095 162.777 173.263C163.769 172.428 164.726 171.566 165.649 170.679C165.855 170.481 166.063 170.285 166.266 170.077C166.472 169.876 166.673 169.673 166.873 169.467C187.12 148.822 188.757 115.773 169.781 93.1619ZM97.3626 95.3096C116.332 79.3945 144.71 81.878 160.626 100.846C175.326 118.364 174.326 143.918 159.141 160.255C158.947 160.464 158.749 160.673 158.546 160.881C158.348 161.087 158.149 161.295 157.941 161.497C157.039 162.399 156.088 163.27 155.089 164.106C154.096 164.938 153.076 165.725 152.028 166.466C151.791 166.63 151.554 166.794 151.318 166.954C151.077 167.115 150.837 167.274 150.597 167.431C142.243 172.851 132.39 175.323 122.313 174.442C110.364 173.394 99.5379 167.759 91.8277 158.569C75.9142 139.605 78.3962 111.225 97.3626 95.3096Z" fill="#96DDE9"/>
<path d="M181.406 112.737C179.138 105.348 175.448 98.5766 170.44 92.6102C165.429 86.6439 159.404 81.8326 152.523 78.3173C145.879 74.9189 138.725 72.8668 131.258 72.2131C123.791 71.561 116.388 72.338 109.255 74.5295C101.869 76.7973 95.0983 80.4878 89.1304 85.4954C83.1608 90.5031 78.3494 96.5343 74.8374 103.412C71.439 110.057 69.3869 117.21 68.7332 124.677C68.0779 132.144 68.8581 139.548 71.0497 146.68C73.3175 154.066 77.0079 160.837 82.0155 166.808C87.0232 172.775 93.0512 177.583 99.9324 181.101C106.577 184.496 113.731 186.548 121.197 187.202C122.901 187.355 124.604 187.428 126.299 187.428C132.029 187.428 137.697 186.578 143.201 184.886C148.81 183.165 154.063 180.623 158.882 177.304C159.119 177.143 159.352 176.979 159.586 176.809C159.82 176.645 160.053 176.478 160.285 176.308C161.32 175.549 162.336 174.754 163.325 173.922C164.318 173.089 165.275 172.23 166.201 171.344C166.411 171.146 166.617 170.946 166.821 170.742C167.024 170.541 167.228 170.338 167.428 170.132C171.533 165.966 174.95 161.231 177.618 156.008C181.017 149.36 183.069 142.206 183.722 134.74C184.376 127.27 183.596 119.868 181.406 112.737ZM182.013 134.589C180.871 147.623 175.354 159.583 166.321 168.812C166.12 169.014 165.917 169.219 165.711 169.418C165.509 169.621 165.301 169.822 165.095 170.02C164.172 170.912 163.212 171.772 162.222 172.604C161.226 173.44 160.212 174.231 159.176 174.986C158.945 175.156 158.713 175.323 158.477 175.487C158.243 175.654 158.006 175.818 157.769 175.978C148.231 182.491 137.226 185.684 126.27 185.684C110.275 185.681 94.3878 178.885 83.3279 165.702C63.4806 142.049 66.5773 106.657 90.2302 86.8094C100.409 78.2703 112.999 73.7039 126.13 73.7039C127.779 73.7039 129.44 73.7769 131.107 73.9229C146.008 75.2287 159.507 82.2559 169.123 93.7133C178.739 105.169 183.315 119.688 182.013 134.589Z" fill="#07A0B8"/>
<path d="M161.281 100.293C145.035 80.9339 116.175 78.4082 96.8128 94.6542C77.4506 110.897 74.9281 139.764 91.1709 159.122C106.202 177.039 132.038 180.537 151.151 168.093C151.394 167.936 151.631 167.774 151.871 167.613C152.108 167.452 152.345 167.292 152.578 167.121C153.623 166.387 154.643 165.6 155.642 164.764C156.638 163.929 157.589 163.058 158.497 162.159C158.7 161.956 158.905 161.749 159.104 161.546C159.305 161.337 159.502 161.131 159.699 160.92C175.274 144.257 176.314 118.208 161.281 100.293ZM159.141 160.255C158.947 160.464 158.749 160.673 158.546 160.881C158.348 161.087 158.149 161.295 157.941 161.497C157.039 162.399 156.089 163.27 155.089 164.106C154.096 164.938 153.076 165.725 152.028 166.466C151.791 166.63 151.555 166.794 151.318 166.954C151.078 167.115 150.838 167.274 150.597 167.431C142.243 172.851 132.39 175.323 122.313 174.442C110.364 173.394 99.5381 167.759 91.8279 158.569C75.9144 139.605 78.3963 111.225 97.3627 95.3096C116.332 79.3945 144.711 81.878 160.626 100.846C175.326 118.364 174.327 143.918 159.141 160.255Z" fill="#FCFCFC"/>
<path d="M161.941 99.743C153.936 90.2014 142.694 84.3534 130.29 83.2666C117.885 82.1797 105.801 85.9902 96.2614 93.9956C86.723 102.001 80.8718 113.243 79.7866 125.647C78.6998 138.052 82.5102 150.139 90.5156 159.676C98.521 169.214 109.759 175.065 122.164 176.149C123.553 176.27 124.933 176.33 126.309 176.33C135.382 176.33 144.146 173.712 151.71 168.753C151.95 168.596 152.191 168.437 152.427 168.273C152.664 168.113 152.901 167.949 153.135 167.782C154.183 167.04 155.203 166.252 156.196 165.42C157.188 164.588 158.142 163.72 159.054 162.818C159.257 162.617 159.461 162.411 159.659 162.208C159.862 162.002 160.063 161.793 160.258 161.585C167.394 154 171.749 144.304 172.672 133.773C173.754 121.366 169.945 109.281 161.941 99.743ZM122.315 174.442C110.366 173.394 99.5398 167.759 91.8296 158.569C75.9145 139.605 78.3964 111.225 97.3628 95.3096C116.332 79.3945 144.711 81.878 160.626 100.846C175.326 118.364 174.327 143.918 159.142 160.255C158.947 160.464 158.749 160.673 158.546 160.881C158.348 161.087 158.149 161.295 157.941 161.497C157.039 162.399 156.089 163.27 155.089 164.106C154.097 164.938 153.076 165.725 152.028 166.466C151.791 166.63 151.555 166.794 151.318 166.954C151.078 167.115 150.838 167.274 150.598 167.431C142.245 172.851 132.39 175.323 122.315 174.442Z" fill="#07A0B8"/>
<path d="M159.141 160.255C158.947 160.464 158.749 160.673 158.546 160.881C158.348 161.087 158.149 161.295 157.941 161.497C157.039 162.399 156.089 163.27 155.089 164.106C154.097 164.938 153.076 165.725 152.028 166.466C151.791 166.63 151.555 166.794 151.318 166.954C151.078 167.115 150.838 167.274 150.598 167.431C142.243 172.851 132.39 175.323 122.313 174.442C110.364 173.394 99.5381 167.759 91.8279 158.569C75.9145 139.605 78.3964 111.225 97.3628 95.3095C116.332 79.3944 144.711 81.878 160.626 100.846C175.326 118.364 174.327 143.918 159.141 160.255Z" fill="white"/>
<path d="M205.786 217.676C205.365 217.676 204.947 217.501 204.65 217.157L177.433 185.723C176.89 185.095 176.958 184.148 177.586 183.604C178.214 183.061 179.161 183.129 179.704 183.757L206.921 215.191C207.464 215.819 207.396 216.766 206.769 217.31C206.483 217.556 206.134 217.676 205.786 217.676Z" fill="white"/>
<path d="M85.0525 98.5246C84.8156 98.5246 84.5772 98.4484 84.376 98.291C83.8991 97.9179 83.8147 97.2269 84.1895 96.75C87.7128 92.2517 91.9256 88.3633 96.7077 85.1969C101.422 82.0758 106.577 79.7285 112.028 78.2199C123.363 75.0826 135.142 75.7396 146.09 80.1227C146.653 80.3482 146.927 80.9873 146.701 81.5502C146.476 82.1131 145.837 82.3873 145.274 82.1618C124.264 73.7541 99.8548 80.3093 85.9154 98.1061C85.7013 98.3786 85.3785 98.5246 85.0525 98.5246Z" fill="white"/>
<path d="M77.6633 111.376C77.5271 111.376 77.3892 111.35 77.2562 111.296C76.6933 111.071 76.4191 110.431 76.6446 109.869C77.7866 107.013 79.1768 104.251 80.7763 101.654C81.0942 101.138 81.7707 100.977 82.2865 101.295C82.8024 101.613 82.963 102.29 82.645 102.806C81.1121 105.296 79.7786 107.946 78.6837 110.686C78.5101 111.114 78.0981 111.376 77.6633 111.376Z" fill="white"/>
<path d="M33.8469 27.1314C33.2029 27.1314 32.679 26.6091 32.679 25.9634V7.26794C32.679 6.62394 33.2013 6.09998 33.8469 6.09998C34.4909 6.09998 35.0149 6.62231 35.0149 7.26794V25.9651C35.0149 26.6091 34.4925 27.1314 33.8469 27.1314Z" fill="#07A0B8"/>
<path d="M25.7796 30.4731C25.4811 30.4731 25.1826 30.3595 24.9539 30.1308L11.7332 16.9101C11.2774 16.4543 11.2774 15.7146 11.7332 15.2587C12.1891 14.8029 12.9288 14.8029 13.3846 15.2587L26.6053 28.4794C27.0611 28.9353 27.0611 29.675 26.6053 30.1308C26.3782 30.3579 26.0797 30.4731 25.7796 30.4731Z" fill="#07A0B8"/>
<path d="M22.4396 38.5386H3.74242C3.09842 38.5386 2.57446 38.0162 2.57446 37.3706C2.57446 36.7266 3.0968 36.2026 3.74242 36.2026H22.4396C23.0836 36.2026 23.6075 36.725 23.6075 37.3706C23.6059 38.0162 23.0836 38.5386 22.4396 38.5386Z" fill="#07A0B8"/>
<path d="M126.644 140.599C124.532 140.599 123.329 139.199 123.033 136.399L122.592 129.768C122.493 128.394 122.777 127.325 123.439 126.562C124.102 125.802 125.097 125.248 126.424 124.904C128.584 124.364 130.255 123.493 131.435 122.288C132.614 121.084 133.203 119.501 133.203 117.535C133.203 115.374 132.625 113.666 131.472 112.414C130.317 111.161 128.683 110.535 126.571 110.535C123.919 110.535 121.977 111.543 120.749 113.557C119.815 114.933 118.981 115.817 118.243 116.21C117.507 116.604 116.524 116.701 115.296 116.505C113.92 116.26 112.875 115.682 112.163 114.774C111.451 113.866 111.414 112.748 112.053 111.421C113.33 108.817 115.232 106.754 117.765 105.231C120.294 103.709 123.23 102.947 126.57 102.947C129.615 102.947 132.304 103.524 134.638 104.678C136.971 105.833 138.801 107.503 140.128 109.689C141.455 111.875 142.117 114.49 142.117 117.537C142.117 121.026 141.048 123.85 138.911 126.011C136.775 128.173 133.938 129.695 130.4 130.579L130.104 136.401C129.861 139.199 128.708 140.599 126.644 140.599ZM126.57 156.443C125.047 156.443 123.733 155.903 122.628 154.822C121.523 153.742 120.97 152.439 120.97 150.916C120.97 149.344 121.523 148.017 122.628 146.937C123.733 145.856 125.047 145.316 126.57 145.316C128.142 145.316 129.48 145.858 130.586 146.937C131.691 148.017 132.244 149.344 132.244 150.916C132.244 152.439 131.691 153.742 130.586 154.822C129.482 155.901 128.142 156.443 126.57 156.443Z" fill="#07A0B8"/>
</g>
<defs>
<clipPath id="clip0_1836_35689">
<rect width="240" height="240" fill="white" transform="translate(0 0.5)"/>
</clipPath>
</defs>
</svg>
